# xmcd CD database file
#
# Track frame offsets:
#	150
#	13774
#	29186
#	43499
#	61298
#	83197
#	98179
#	115008
#	127714
#	142250
#	158594
#	173198
#	188269
#	203518
#
# Disc length: 2957 seconds
#
# Revision: 0
# Processed by: cddbd v1.5.2PL0 Copyright (c) Steve Scherf et al.
# Submitted via: CDex 1.79
#
DISCID=b80b8b0e
DTITLE=Kent Blazy - Have Guitar - Will Travel
DYEAR=2006
DGENRE=Country
TTITLE0=Prayer Of A Song
TTITLE1=Have Guitar Will Travel
TTITLE2=Rattlesnake
TTITLE3=How You Ever Gonna Know
TTITLE4=For A Minute There
TTITLE5=In The Mood For You
TTITLE6=Listen
TTITLE7=Somebody`s Son
TTITLE8=Slow Down
TTITLE9=When I Love Myself Enough
TTITLE10=Bible With A Bullet Hole
TTITLE11=You Believed In Me
TTITLE12=Well Rounded Woman
TTITLE13=If Tomorrow Never Comes
EXTD=YEAR: 2006
EXTT0=
EXTT1=
EXTT2=
EXTT3=
EXTT4=
EXTT5=
EXTT6=
EXTT7=
EXTT8=
EXTT9=
EXTT10=
EXTT11=
EXTT12=
EXTT13=
PLAYORDER=
